<svg width="312" height="226" viewBox="0 0 312 226" fill="none" xmlns="http://www.w3.org/2000/svg">
<path d="M310 2C309.321 19.3521 303.954 35.2517 296.391 50.8677C278 88.8429 251.776 123.675 215.86 146.788C157.138 184.577 85.6394 191.322 18.3193 176.667" stroke="black" stroke-width="4" stroke-linecap="round"/>
<path d="M5.03101 172.425C8.67986 171.432 12.0128 169.478 15.2874 167.642C22.136 163.803 28.7478 159.566 35.1775 155.069C40.9128 151.058 46.7287 147.077 52.3061 142.848C52.5567 142.658 54.3616 141.458 54.3616 140.999" stroke="black" stroke-width="4" stroke-linecap="round"/>
<path d="M2.41504 172.797C7.21622 177.426 11.7933 181.986 15.6404 187.477C18.9225 192.161 22.015 197.102 24.2774 202.364C25.8192 205.95 26.6352 208.5 27.6097 212.292C28.56 215.99 28.8022 219.468 29.3226 223.191" stroke="black" stroke-width="4" stroke-linecap="round"/>
</svg>
