<svg width="280" height="280" viewBox="0 0 280 280" fill="none" xmlns="http://www.w3.org/2000/svg">
<rect width="280" height="280" rx="32" fill="white"/>
<g clip-path="url(#clip0_782_2)">
<path fill-rule="evenodd" clip-rule="evenodd" d="M83.2557 214.653L83.2556 240H96.7444V214.653C96.7444 204.762 104.763 196.744 114.654 196.744H114.702H140H165.296H165.347C175.237 196.744 183.256 204.762 183.256 214.653V240H196.744V214.653C196.744 204.762 204.763 196.744 214.654 196.744H214.702H240V183.256H214.702H214.654C204.763 183.256 196.744 175.238 196.744 165.347V140V114.653C196.744 104.762 204.763 96.7442 214.654 96.7442L214.702 96.7443H240V83.2557H214.702H214.654C204.763 83.2557 196.744 75.2375 196.744 65.3466V40L183.256 40V65.3466C183.256 75.2375 175.237 83.2557 165.347 83.2557H165.298H140H114.702H114.654C104.763 83.2557 96.7444 75.2375 96.7444 65.3466V40L83.2556 40V65.3466C83.2556 75.2375 75.2374 83.2558 65.3465 83.2558L65.2978 83.2557H40L40 96.7443H65.2964L65.3465 96.7442C75.2374 96.7442 83.2557 104.762 83.2557 114.653L83.2556 140L83.2557 165.347C83.2557 175.238 75.2374 183.256 65.3465 183.256H65.2978H40L40 196.744H65.2964H65.3465C75.2374 196.744 83.2557 204.762 83.2557 214.653ZM183.256 140V114.653C183.256 104.762 175.237 96.7442 165.347 96.7442L165.296 96.7443H140H114.702L114.654 96.7442C104.763 96.7442 96.7444 104.762 96.7444 114.653V140V165.347C96.7444 175.238 104.763 183.256 114.654 183.256H114.702H140H165.298H165.347C175.237 183.256 183.256 175.238 183.256 165.347V140Z" fill="black"/>
</g>
<defs>
<clipPath id="clip0_782_2">
<rect width="200" height="200" fill="white" transform="translate(40 40)"/>
</clipPath>
</defs>
</svg>
